# xmcd
#
# Track frame offsets:
#	150
#	12486
#	24613
#	43412
#	55198
#	68084
#	80635
#	92086
#	105107
#	115696
#	131060
#	143647
#
# Disc length: 2080 seconds
#
# Revision: 1
# Processed by: cddbd v1.5.2PL0 Copyright (c) Steve Scherf et al.
# Submitted via: audiograbber 1.82.02
#
DISCID=9d081e0c
DTITLE=Reg Lindsay - Silence On The Line
DYEAR=2001
DGENRE=Country
TTITLE0=Ladies Love Outlaws
TTITLE1=Too Old To Learn
TTITLE2=Silence On The Line
TTITLE3=Good Old CPWboy Pickin'
TTITLE4=The Cross Roads
TTITLE5=Dad's Violin
TTITLE6=Ranin' In Kentucky
TTITLE7=Slip Away
TTITLE8=Bad Whiskey Going Down
TTITLE9=Rockin' Alone In A Old Rockin' Chair
TTITLE10=Back Street Affair
TTITLE11=Cowboy Music
EXTD=
EXTT0=
EXTT1=
EXTT2=
EXTT3=
EXTT4=
EXTT5=
EXTT6=
EXTT7=
EXTT8=
EXTT9=
EXTT10=
EXTT11=
PLAYORDER=
